<mxfile host="app.diagrams.net" modified="2023-11-16T01:01:12.102Z" agent="Mozilla/5.0 (Windows NT 10.0; Win64; x64) AppleWebKit/537.36 (KHTML, like Gecko) Chrome/119.0.0.0 Safari/537.36" etag="VATSFaMc3VL9gpKl_ARQ" version="22.1.1" type="device" pages="6">
  <diagram id="C5RBs43oDa-KdzZeNtuy" name="bt1 ss1">
    <mxGraphModel dx="794" dy="456" grid="1" gridSize="10" guides="1" tooltips="1" connect="1" arrows="1" fold="1" page="1" pageScale="1" pageWidth="827" pageHeight="1169" math="0" shadow="0">
      <root>
        <mxCell id="WIyWlLk6GJQsqaUBKTNV-0" />
        <mxCell id="WIyWlLk6GJQsqaUBKTNV-1" parent="WIyWlLk6GJQsqaUBKTNV-0" />
        <mxCell id="HM4UWTsXR8m5BmSkvX9Z-2" style="edgeStyle=orthogonalEdgeStyle;rounded=0;orthogonalLoop=1;jettySize=auto;html=1;exitX=0.5;exitY=1;exitDx=0;exitDy=0;entryX=0.5;entryY=0;entryDx=0;entryDy=0;" edge="1" parent="WIyWlLk6GJQsqaUBKTNV-1" source="HM4UWTsXR8m5BmSkvX9Z-0" target="HM4UWTsXR8m5BmSkvX9Z-1">
          <mxGeometry relative="1" as="geometry" />
        </mxCell>
        <mxCell id="HM4UWTsXR8m5BmSkvX9Z-0" value="start" style="ellipse;whiteSpace=wrap;html=1;" vertex="1" parent="WIyWlLk6GJQsqaUBKTNV-1">
          <mxGeometry x="20" y="140" width="120" height="80" as="geometry" />
        </mxCell>
        <mxCell id="HM4UWTsXR8m5BmSkvX9Z-4" style="edgeStyle=orthogonalEdgeStyle;rounded=0;orthogonalLoop=1;jettySize=auto;html=1;exitX=0.5;exitY=1;exitDx=0;exitDy=0;entryX=0.5;entryY=0;entryDx=0;entryDy=0;" edge="1" parent="WIyWlLk6GJQsqaUBKTNV-1" source="HM4UWTsXR8m5BmSkvX9Z-1" target="HM4UWTsXR8m5BmSkvX9Z-3">
          <mxGeometry relative="1" as="geometry" />
        </mxCell>
        <mxCell id="HM4UWTsXR8m5BmSkvX9Z-1" value="a,b,c," style="shape=parallelogram;perimeter=parallelogramPerimeter;whiteSpace=wrap;html=1;fixedSize=1;" vertex="1" parent="WIyWlLk6GJQsqaUBKTNV-1">
          <mxGeometry x="20" y="260" width="120" height="60" as="geometry" />
        </mxCell>
        <mxCell id="HM4UWTsXR8m5BmSkvX9Z-6" style="edgeStyle=orthogonalEdgeStyle;rounded=0;orthogonalLoop=1;jettySize=auto;html=1;exitX=0.5;exitY=1;exitDx=0;exitDy=0;" edge="1" parent="WIyWlLk6GJQsqaUBKTNV-1" source="HM4UWTsXR8m5BmSkvX9Z-3" target="HM4UWTsXR8m5BmSkvX9Z-5">
          <mxGeometry relative="1" as="geometry" />
        </mxCell>
        <mxCell id="HM4UWTsXR8m5BmSkvX9Z-3" value="min=a" style="rounded=0;whiteSpace=wrap;html=1;" vertex="1" parent="WIyWlLk6GJQsqaUBKTNV-1">
          <mxGeometry x="20" y="360" width="120" height="60" as="geometry" />
        </mxCell>
        <mxCell id="HM4UWTsXR8m5BmSkvX9Z-15" value="" style="edgeStyle=orthogonalEdgeStyle;rounded=0;orthogonalLoop=1;jettySize=auto;html=1;" edge="1" parent="WIyWlLk6GJQsqaUBKTNV-1" source="HM4UWTsXR8m5BmSkvX9Z-5" target="HM4UWTsXR8m5BmSkvX9Z-10">
          <mxGeometry relative="1" as="geometry" />
        </mxCell>
        <mxCell id="HM4UWTsXR8m5BmSkvX9Z-16" value="flase" style="edgeLabel;html=1;align=center;verticalAlign=middle;resizable=0;points=[];" vertex="1" connectable="0" parent="HM4UWTsXR8m5BmSkvX9Z-15">
          <mxGeometry x="0.037" y="7" relative="1" as="geometry">
            <mxPoint x="-7" y="-3" as="offset" />
          </mxGeometry>
        </mxCell>
        <mxCell id="HM4UWTsXR8m5BmSkvX9Z-20" style="edgeStyle=orthogonalEdgeStyle;rounded=0;orthogonalLoop=1;jettySize=auto;html=1;exitX=0.5;exitY=0;exitDx=0;exitDy=0;entryX=0;entryY=0.5;entryDx=0;entryDy=0;" edge="1" parent="WIyWlLk6GJQsqaUBKTNV-1" source="HM4UWTsXR8m5BmSkvX9Z-5" target="HM4UWTsXR8m5BmSkvX9Z-19">
          <mxGeometry relative="1" as="geometry" />
        </mxCell>
        <mxCell id="HM4UWTsXR8m5BmSkvX9Z-21" value="true" style="edgeLabel;html=1;align=center;verticalAlign=middle;resizable=0;points=[];" vertex="1" connectable="0" parent="HM4UWTsXR8m5BmSkvX9Z-20">
          <mxGeometry x="-0.2727" y="4" relative="1" as="geometry">
            <mxPoint x="4" as="offset" />
          </mxGeometry>
        </mxCell>
        <mxCell id="HM4UWTsXR8m5BmSkvX9Z-5" value="min&amp;gt;b" style="rhombus;whiteSpace=wrap;html=1;" vertex="1" parent="WIyWlLk6GJQsqaUBKTNV-1">
          <mxGeometry x="190" y="420" width="80" height="80" as="geometry" />
        </mxCell>
        <mxCell id="HM4UWTsXR8m5BmSkvX9Z-26" style="edgeStyle=orthogonalEdgeStyle;rounded=0;orthogonalLoop=1;jettySize=auto;html=1;exitX=0.5;exitY=1;exitDx=0;exitDy=0;entryX=0.5;entryY=0;entryDx=0;entryDy=0;" edge="1" parent="WIyWlLk6GJQsqaUBKTNV-1" source="HM4UWTsXR8m5BmSkvX9Z-10" target="HM4UWTsXR8m5BmSkvX9Z-25">
          <mxGeometry relative="1" as="geometry" />
        </mxCell>
        <mxCell id="HM4UWTsXR8m5BmSkvX9Z-28" value="true" style="edgeLabel;html=1;align=center;verticalAlign=middle;resizable=0;points=[];" vertex="1" connectable="0" parent="HM4UWTsXR8m5BmSkvX9Z-26">
          <mxGeometry x="0.1333" y="2" relative="1" as="geometry">
            <mxPoint as="offset" />
          </mxGeometry>
        </mxCell>
        <mxCell id="HM4UWTsXR8m5BmSkvX9Z-30" style="edgeStyle=orthogonalEdgeStyle;rounded=0;orthogonalLoop=1;jettySize=auto;html=1;exitX=1;exitY=0.5;exitDx=0;exitDy=0;entryX=0.25;entryY=1;entryDx=0;entryDy=0;" edge="1" parent="WIyWlLk6GJQsqaUBKTNV-1" source="HM4UWTsXR8m5BmSkvX9Z-10" target="HM4UWTsXR8m5BmSkvX9Z-29">
          <mxGeometry relative="1" as="geometry" />
        </mxCell>
        <mxCell id="HM4UWTsXR8m5BmSkvX9Z-10" value="min&amp;gt;c" style="rhombus;whiteSpace=wrap;html=1;" vertex="1" parent="WIyWlLk6GJQsqaUBKTNV-1">
          <mxGeometry x="430" y="420" width="80" height="80" as="geometry" />
        </mxCell>
        <mxCell id="HM4UWTsXR8m5BmSkvX9Z-24" style="edgeStyle=orthogonalEdgeStyle;rounded=0;orthogonalLoop=1;jettySize=auto;html=1;exitX=1;exitY=0.5;exitDx=0;exitDy=0;entryX=0.5;entryY=0;entryDx=0;entryDy=0;" edge="1" parent="WIyWlLk6GJQsqaUBKTNV-1" source="HM4UWTsXR8m5BmSkvX9Z-19" target="HM4UWTsXR8m5BmSkvX9Z-10">
          <mxGeometry relative="1" as="geometry" />
        </mxCell>
        <mxCell id="HM4UWTsXR8m5BmSkvX9Z-19" value="min=b" style="rounded=0;whiteSpace=wrap;html=1;" vertex="1" parent="WIyWlLk6GJQsqaUBKTNV-1">
          <mxGeometry x="270" y="320" width="120" height="60" as="geometry" />
        </mxCell>
        <mxCell id="HM4UWTsXR8m5BmSkvX9Z-31" style="edgeStyle=orthogonalEdgeStyle;rounded=0;orthogonalLoop=1;jettySize=auto;html=1;exitX=1;exitY=0.75;exitDx=0;exitDy=0;entryX=0.75;entryY=1;entryDx=0;entryDy=0;" edge="1" parent="WIyWlLk6GJQsqaUBKTNV-1" source="HM4UWTsXR8m5BmSkvX9Z-25" target="HM4UWTsXR8m5BmSkvX9Z-29">
          <mxGeometry relative="1" as="geometry" />
        </mxCell>
        <mxCell id="HM4UWTsXR8m5BmSkvX9Z-25" value="min=c" style="rounded=0;whiteSpace=wrap;html=1;" vertex="1" parent="WIyWlLk6GJQsqaUBKTNV-1">
          <mxGeometry x="410" y="560" width="120" height="60" as="geometry" />
        </mxCell>
        <mxCell id="HM4UWTsXR8m5BmSkvX9Z-34" style="edgeStyle=orthogonalEdgeStyle;rounded=0;orthogonalLoop=1;jettySize=auto;html=1;exitX=0.5;exitY=0;exitDx=0;exitDy=0;" edge="1" parent="WIyWlLk6GJQsqaUBKTNV-1" source="HM4UWTsXR8m5BmSkvX9Z-29" target="HM4UWTsXR8m5BmSkvX9Z-33">
          <mxGeometry relative="1" as="geometry" />
        </mxCell>
        <mxCell id="HM4UWTsXR8m5BmSkvX9Z-29" value="min" style="shape=parallelogram;perimeter=parallelogramPerimeter;whiteSpace=wrap;html=1;fixedSize=1;" vertex="1" parent="WIyWlLk6GJQsqaUBKTNV-1">
          <mxGeometry x="550" y="250" width="120" height="60" as="geometry" />
        </mxCell>
        <mxCell id="HM4UWTsXR8m5BmSkvX9Z-33" value="end" style="ellipse;whiteSpace=wrap;html=1;" vertex="1" parent="WIyWlLk6GJQsqaUBKTNV-1">
          <mxGeometry x="550" y="100" width="120" height="80" as="geometry" />
        </mxCell>
      </root>
    </mxGraphModel>
  </diagram>
  <diagram id="USocWHCvIuvIKBbZUOjZ" name="bt2 ss1">
    <mxGraphModel dx="794" dy="456" grid="1" gridSize="10" guides="1" tooltips="1" connect="1" arrows="1" fold="1" page="1" pageScale="1" pageWidth="827" pageHeight="1169" math="0" shadow="0">
      <root>
        <mxCell id="0" />
        <mxCell id="1" parent="0" />
        <mxCell id="KRssSdnrt57fDUq0Yrhn-6" style="edgeStyle=orthogonalEdgeStyle;rounded=0;orthogonalLoop=1;jettySize=auto;html=1;exitX=0.5;exitY=1;exitDx=0;exitDy=0;entryX=0.5;entryY=0;entryDx=0;entryDy=0;" edge="1" parent="1" source="KRssSdnrt57fDUq0Yrhn-1" target="KRssSdnrt57fDUq0Yrhn-5">
          <mxGeometry relative="1" as="geometry" />
        </mxCell>
        <mxCell id="KRssSdnrt57fDUq0Yrhn-1" value="start" style="ellipse;whiteSpace=wrap;html=1;" vertex="1" parent="1">
          <mxGeometry x="340" y="20" width="120" height="80" as="geometry" />
        </mxCell>
        <mxCell id="KRssSdnrt57fDUq0Yrhn-33" style="edgeStyle=orthogonalEdgeStyle;rounded=0;orthogonalLoop=1;jettySize=auto;html=1;exitX=0.5;exitY=1;exitDx=0;exitDy=0;entryX=0.5;entryY=0;entryDx=0;entryDy=0;" edge="1" parent="1" source="KRssSdnrt57fDUq0Yrhn-4" target="KRssSdnrt57fDUq0Yrhn-32">
          <mxGeometry relative="1" as="geometry">
            <Array as="points">
              <mxPoint x="530" y="320" />
            </Array>
          </mxGeometry>
        </mxCell>
        <mxCell id="KRssSdnrt57fDUq0Yrhn-35" value="true" style="edgeLabel;html=1;align=center;verticalAlign=middle;resizable=0;points=[];" vertex="1" connectable="0" parent="KRssSdnrt57fDUq0Yrhn-33">
          <mxGeometry x="0.1033" y="1" relative="1" as="geometry">
            <mxPoint x="-15" as="offset" />
          </mxGeometry>
        </mxCell>
        <mxCell id="KRssSdnrt57fDUq0Yrhn-65" style="edgeStyle=orthogonalEdgeStyle;rounded=0;orthogonalLoop=1;jettySize=auto;html=1;exitX=0.5;exitY=1;exitDx=0;exitDy=0;entryX=0.5;entryY=0;entryDx=0;entryDy=0;" edge="1" parent="1" source="KRssSdnrt57fDUq0Yrhn-4" target="KRssSdnrt57fDUq0Yrhn-57">
          <mxGeometry relative="1" as="geometry">
            <Array as="points">
              <mxPoint x="160" y="320" />
            </Array>
          </mxGeometry>
        </mxCell>
        <mxCell id="KRssSdnrt57fDUq0Yrhn-66" value="false" style="edgeLabel;html=1;align=center;verticalAlign=middle;resizable=0;points=[];" vertex="1" connectable="0" parent="KRssSdnrt57fDUq0Yrhn-65">
          <mxGeometry x="-0.1494" y="1" relative="1" as="geometry">
            <mxPoint as="offset" />
          </mxGeometry>
        </mxCell>
        <mxCell id="KRssSdnrt57fDUq0Yrhn-4" value="a=0" style="rhombus;whiteSpace=wrap;html=1;" vertex="1" parent="1">
          <mxGeometry x="360" y="240" width="80" height="80" as="geometry" />
        </mxCell>
        <mxCell id="KRssSdnrt57fDUq0Yrhn-7" style="edgeStyle=orthogonalEdgeStyle;rounded=0;orthogonalLoop=1;jettySize=auto;html=1;exitX=0.5;exitY=1;exitDx=0;exitDy=0;entryX=0.5;entryY=0;entryDx=0;entryDy=0;" edge="1" parent="1" source="KRssSdnrt57fDUq0Yrhn-5" target="KRssSdnrt57fDUq0Yrhn-4">
          <mxGeometry relative="1" as="geometry" />
        </mxCell>
        <mxCell id="KRssSdnrt57fDUq0Yrhn-5" value="a,b" style="shape=parallelogram;perimeter=parallelogramPerimeter;whiteSpace=wrap;html=1;fixedSize=1;" vertex="1" parent="1">
          <mxGeometry x="340" y="140" width="120" height="60" as="geometry" />
        </mxCell>
        <mxCell id="KRssSdnrt57fDUq0Yrhn-39" style="edgeStyle=orthogonalEdgeStyle;rounded=0;orthogonalLoop=1;jettySize=auto;html=1;exitX=1;exitY=0.5;exitDx=0;exitDy=0;entryX=0.5;entryY=0;entryDx=0;entryDy=0;" edge="1" parent="1" source="KRssSdnrt57fDUq0Yrhn-32" target="KRssSdnrt57fDUq0Yrhn-38">
          <mxGeometry relative="1" as="geometry" />
        </mxCell>
        <mxCell id="KRssSdnrt57fDUq0Yrhn-46" value="true" style="edgeLabel;html=1;align=center;verticalAlign=middle;resizable=0;points=[];" vertex="1" connectable="0" parent="KRssSdnrt57fDUq0Yrhn-39">
          <mxGeometry x="-0.3378" y="-1" relative="1" as="geometry">
            <mxPoint x="-10" y="-1" as="offset" />
          </mxGeometry>
        </mxCell>
        <mxCell id="KRssSdnrt57fDUq0Yrhn-54" style="edgeStyle=orthogonalEdgeStyle;rounded=0;orthogonalLoop=1;jettySize=auto;html=1;exitX=0;exitY=0.5;exitDx=0;exitDy=0;entryX=0.5;entryY=0;entryDx=0;entryDy=0;" edge="1" parent="1" source="KRssSdnrt57fDUq0Yrhn-32" target="KRssSdnrt57fDUq0Yrhn-53">
          <mxGeometry relative="1" as="geometry" />
        </mxCell>
        <mxCell id="KRssSdnrt57fDUq0Yrhn-55" value="false" style="edgeLabel;html=1;align=center;verticalAlign=middle;resizable=0;points=[];" vertex="1" connectable="0" parent="KRssSdnrt57fDUq0Yrhn-54">
          <mxGeometry x="-0.4425" y="1" relative="1" as="geometry">
            <mxPoint as="offset" />
          </mxGeometry>
        </mxCell>
        <mxCell id="KRssSdnrt57fDUq0Yrhn-32" value="b=0" style="rhombus;whiteSpace=wrap;html=1;" vertex="1" parent="1">
          <mxGeometry x="490" y="370" width="80" height="80" as="geometry" />
        </mxCell>
        <mxCell id="KRssSdnrt57fDUq0Yrhn-38" value="Phương trình vô số nghiệm" style="shape=parallelogram;perimeter=parallelogramPerimeter;whiteSpace=wrap;html=1;fixedSize=1;" vertex="1" parent="1">
          <mxGeometry x="590" y="440" width="140" height="60" as="geometry" />
        </mxCell>
        <mxCell id="KRssSdnrt57fDUq0Yrhn-69" style="edgeStyle=orthogonalEdgeStyle;rounded=0;orthogonalLoop=1;jettySize=auto;html=1;exitX=0.5;exitY=1;exitDx=0;exitDy=0;" edge="1" parent="1" source="KRssSdnrt57fDUq0Yrhn-53" target="KRssSdnrt57fDUq0Yrhn-63">
          <mxGeometry relative="1" as="geometry" />
        </mxCell>
        <mxCell id="KRssSdnrt57fDUq0Yrhn-53" value="Phương trình vô nghiệm" style="shape=parallelogram;perimeter=parallelogramPerimeter;whiteSpace=wrap;html=1;fixedSize=1;" vertex="1" parent="1">
          <mxGeometry x="280" y="460" width="120" height="60" as="geometry" />
        </mxCell>
        <mxCell id="KRssSdnrt57fDUq0Yrhn-57" value="Phương trình có nghiệm x=-b/a" style="shape=parallelogram;perimeter=parallelogramPerimeter;whiteSpace=wrap;html=1;fixedSize=1;" vertex="1" parent="1">
          <mxGeometry x="100" y="370" width="120" height="60" as="geometry" />
        </mxCell>
        <mxCell id="KRssSdnrt57fDUq0Yrhn-63" value="end" style="ellipse;whiteSpace=wrap;html=1;" vertex="1" parent="1">
          <mxGeometry x="280" y="620" width="120" height="80" as="geometry" />
        </mxCell>
        <mxCell id="KRssSdnrt57fDUq0Yrhn-68" style="edgeStyle=orthogonalEdgeStyle;rounded=0;orthogonalLoop=1;jettySize=auto;html=1;exitX=0.5;exitY=1;exitDx=0;exitDy=0;entryX=0;entryY=0.717;entryDx=0;entryDy=0;entryPerimeter=0;" edge="1" parent="1" source="KRssSdnrt57fDUq0Yrhn-57" target="KRssSdnrt57fDUq0Yrhn-63">
          <mxGeometry relative="1" as="geometry" />
        </mxCell>
        <mxCell id="KRssSdnrt57fDUq0Yrhn-70" style="edgeStyle=orthogonalEdgeStyle;rounded=0;orthogonalLoop=1;jettySize=auto;html=1;exitX=0.5;exitY=1;exitDx=0;exitDy=0;entryX=0.972;entryY=0.775;entryDx=0;entryDy=0;entryPerimeter=0;" edge="1" parent="1" source="KRssSdnrt57fDUq0Yrhn-38" target="KRssSdnrt57fDUq0Yrhn-63">
          <mxGeometry relative="1" as="geometry">
            <Array as="points">
              <mxPoint x="660" y="682" />
            </Array>
          </mxGeometry>
        </mxCell>
      </root>
    </mxGraphModel>
  </diagram>
  <diagram id="VEVNZOEHhJyIUbBg13ZY" name="bt3 ss1">
    <mxGraphModel dx="794" dy="456" grid="1" gridSize="10" guides="1" tooltips="1" connect="1" arrows="1" fold="1" page="1" pageScale="1" pageWidth="827" pageHeight="1169" math="0" shadow="0">
      <root>
        <mxCell id="0" />
        <mxCell id="1" parent="0" />
        <mxCell id="r7OtUqgTrDfReQDa_aqj-3" style="edgeStyle=orthogonalEdgeStyle;rounded=0;orthogonalLoop=1;jettySize=auto;html=1;exitX=0.5;exitY=1;exitDx=0;exitDy=0;entryX=0.5;entryY=0;entryDx=0;entryDy=0;" edge="1" parent="1" source="r7OtUqgTrDfReQDa_aqj-1" target="r7OtUqgTrDfReQDa_aqj-2">
          <mxGeometry relative="1" as="geometry" />
        </mxCell>
        <mxCell id="r7OtUqgTrDfReQDa_aqj-1" value="start&amp;nbsp;" style="ellipse;whiteSpace=wrap;html=1;" vertex="1" parent="1">
          <mxGeometry x="20" y="40" width="120" height="80" as="geometry" />
        </mxCell>
        <mxCell id="JX8_ew-5PKiOk_pRESaE-7" style="edgeStyle=orthogonalEdgeStyle;rounded=0;orthogonalLoop=1;jettySize=auto;html=1;exitX=0.5;exitY=1;exitDx=0;exitDy=0;" edge="1" parent="1" source="r7OtUqgTrDfReQDa_aqj-2" target="JX8_ew-5PKiOk_pRESaE-6">
          <mxGeometry relative="1" as="geometry" />
        </mxCell>
        <mxCell id="r7OtUqgTrDfReQDa_aqj-2" value="a,b" style="shape=parallelogram;perimeter=parallelogramPerimeter;whiteSpace=wrap;html=1;fixedSize=1;" vertex="1" parent="1">
          <mxGeometry x="20" y="180" width="120" height="60" as="geometry" />
        </mxCell>
        <mxCell id="JX8_ew-5PKiOk_pRESaE-13" style="edgeStyle=orthogonalEdgeStyle;rounded=0;orthogonalLoop=1;jettySize=auto;html=1;exitX=0.5;exitY=0;exitDx=0;exitDy=0;entryX=0;entryY=0.5;entryDx=0;entryDy=0;" edge="1" parent="1" source="JX8_ew-5PKiOk_pRESaE-1" target="JX8_ew-5PKiOk_pRESaE-12">
          <mxGeometry relative="1" as="geometry" />
        </mxCell>
        <mxCell id="JX8_ew-5PKiOk_pRESaE-14" value="true" style="edgeLabel;html=1;align=center;verticalAlign=middle;resizable=0;points=[];" vertex="1" connectable="0" parent="JX8_ew-5PKiOk_pRESaE-13">
          <mxGeometry x="-0.2667" y="2" relative="1" as="geometry">
            <mxPoint as="offset" />
          </mxGeometry>
        </mxCell>
        <mxCell id="JX8_ew-5PKiOk_pRESaE-1" value="a&amp;gt;b" style="rhombus;whiteSpace=wrap;html=1;" vertex="1" parent="1">
          <mxGeometry x="230" y="380" width="80" height="80" as="geometry" />
        </mxCell>
        <mxCell id="JX8_ew-5PKiOk_pRESaE-9" style="edgeStyle=orthogonalEdgeStyle;rounded=0;orthogonalLoop=1;jettySize=auto;html=1;exitX=0.5;exitY=1;exitDx=0;exitDy=0;entryX=0.5;entryY=0;entryDx=0;entryDy=0;" edge="1" parent="1" source="JX8_ew-5PKiOk_pRESaE-6" target="JX8_ew-5PKiOk_pRESaE-8">
          <mxGeometry relative="1" as="geometry" />
        </mxCell>
        <mxCell id="JX8_ew-5PKiOk_pRESaE-6" value="UCLN:=a" style="rounded=0;whiteSpace=wrap;html=1;" vertex="1" parent="1">
          <mxGeometry x="20" y="300" width="120" height="60" as="geometry" />
        </mxCell>
        <mxCell id="JX8_ew-5PKiOk_pRESaE-11" style="edgeStyle=orthogonalEdgeStyle;rounded=0;orthogonalLoop=1;jettySize=auto;html=1;exitX=1;exitY=0.5;exitDx=0;exitDy=0;entryX=0;entryY=0.5;entryDx=0;entryDy=0;" edge="1" parent="1" source="JX8_ew-5PKiOk_pRESaE-8" target="JX8_ew-5PKiOk_pRESaE-1">
          <mxGeometry relative="1" as="geometry" />
        </mxCell>
        <mxCell id="JX8_ew-5PKiOk_pRESaE-8" value="BCNN:=(a*b)/UCLN" style="rounded=0;whiteSpace=wrap;html=1;" vertex="1" parent="1">
          <mxGeometry x="20" y="390" width="120" height="60" as="geometry" />
        </mxCell>
        <mxCell id="JX8_ew-5PKiOk_pRESaE-12" value="a:=a-b" style="rounded=0;whiteSpace=wrap;html=1;" vertex="1" parent="1">
          <mxGeometry x="310" y="260" width="120" height="60" as="geometry" />
        </mxCell>
        <mxCell id="JX8_ew-5PKiOk_pRESaE-22" style="edgeStyle=orthogonalEdgeStyle;rounded=0;orthogonalLoop=1;jettySize=auto;html=1;exitX=1;exitY=0.5;exitDx=0;exitDy=0;entryX=0;entryY=0.5;entryDx=0;entryDy=0;" edge="1" parent="1" source="JX8_ew-5PKiOk_pRESaE-15" target="JX8_ew-5PKiOk_pRESaE-21">
          <mxGeometry relative="1" as="geometry" />
        </mxCell>
        <mxCell id="JX8_ew-5PKiOk_pRESaE-23" value="false" style="edgeLabel;html=1;align=center;verticalAlign=middle;resizable=0;points=[];" vertex="1" connectable="0" parent="JX8_ew-5PKiOk_pRESaE-22">
          <mxGeometry x="-0.0333" y="3" relative="1" as="geometry">
            <mxPoint as="offset" />
          </mxGeometry>
        </mxCell>
        <mxCell id="JX8_ew-5PKiOk_pRESaE-15" value="a&amp;lt;b" style="rhombus;whiteSpace=wrap;html=1;" vertex="1" parent="1">
          <mxGeometry x="380" y="380" width="80" height="80" as="geometry" />
        </mxCell>
        <mxCell id="JX8_ew-5PKiOk_pRESaE-16" style="edgeStyle=orthogonalEdgeStyle;rounded=0;orthogonalLoop=1;jettySize=auto;html=1;exitX=1;exitY=0.5;exitDx=0;exitDy=0;entryX=0;entryY=0.508;entryDx=0;entryDy=0;entryPerimeter=0;" edge="1" parent="1" source="JX8_ew-5PKiOk_pRESaE-1" target="JX8_ew-5PKiOk_pRESaE-15">
          <mxGeometry relative="1" as="geometry" />
        </mxCell>
        <mxCell id="JX8_ew-5PKiOk_pRESaE-17" value="false" style="edgeLabel;html=1;align=center;verticalAlign=middle;resizable=0;points=[];" vertex="1" connectable="0" parent="JX8_ew-5PKiOk_pRESaE-16">
          <mxGeometry x="-0.0402" y="3" relative="1" as="geometry">
            <mxPoint as="offset" />
          </mxGeometry>
        </mxCell>
        <mxCell id="JX8_ew-5PKiOk_pRESaE-30" style="edgeStyle=orthogonalEdgeStyle;rounded=0;orthogonalLoop=1;jettySize=auto;html=1;exitX=1;exitY=0.5;exitDx=0;exitDy=0;entryX=0.75;entryY=1;entryDx=0;entryDy=0;" edge="1" parent="1" source="JX8_ew-5PKiOk_pRESaE-18" target="JX8_ew-5PKiOk_pRESaE-28">
          <mxGeometry relative="1" as="geometry" />
        </mxCell>
        <mxCell id="JX8_ew-5PKiOk_pRESaE-18" value="b:=b-a" style="rounded=0;whiteSpace=wrap;html=1;" vertex="1" parent="1">
          <mxGeometry x="370" y="510" width="120" height="60" as="geometry" />
        </mxCell>
        <mxCell id="JX8_ew-5PKiOk_pRESaE-19" style="edgeStyle=orthogonalEdgeStyle;rounded=0;orthogonalLoop=1;jettySize=auto;html=1;exitX=0.5;exitY=1;exitDx=0;exitDy=0;entryX=0.417;entryY=0.044;entryDx=0;entryDy=0;entryPerimeter=0;" edge="1" parent="1" source="JX8_ew-5PKiOk_pRESaE-15" target="JX8_ew-5PKiOk_pRESaE-18">
          <mxGeometry relative="1" as="geometry" />
        </mxCell>
        <mxCell id="JX8_ew-5PKiOk_pRESaE-20" value="true" style="edgeLabel;html=1;align=center;verticalAlign=middle;resizable=0;points=[];" vertex="1" connectable="0" parent="JX8_ew-5PKiOk_pRESaE-19">
          <mxGeometry x="-0.1894" y="2" relative="1" as="geometry">
            <mxPoint as="offset" />
          </mxGeometry>
        </mxCell>
        <mxCell id="JX8_ew-5PKiOk_pRESaE-26" style="edgeStyle=orthogonalEdgeStyle;rounded=0;orthogonalLoop=1;jettySize=auto;html=1;exitX=0.5;exitY=0;exitDx=0;exitDy=0;entryX=1;entryY=0.5;entryDx=0;entryDy=0;" edge="1" parent="1" source="JX8_ew-5PKiOk_pRESaE-21" target="JX8_ew-5PKiOk_pRESaE-12">
          <mxGeometry relative="1" as="geometry" />
        </mxCell>
        <mxCell id="JX8_ew-5PKiOk_pRESaE-27" value="true" style="edgeLabel;html=1;align=center;verticalAlign=middle;resizable=0;points=[];" vertex="1" connectable="0" parent="JX8_ew-5PKiOk_pRESaE-26">
          <mxGeometry x="0.2091" y="1" relative="1" as="geometry">
            <mxPoint as="offset" />
          </mxGeometry>
        </mxCell>
        <mxCell id="JX8_ew-5PKiOk_pRESaE-29" style="edgeStyle=orthogonalEdgeStyle;rounded=0;orthogonalLoop=1;jettySize=auto;html=1;entryX=0.25;entryY=1;entryDx=0;entryDy=0;" edge="1" parent="1" source="JX8_ew-5PKiOk_pRESaE-21" target="JX8_ew-5PKiOk_pRESaE-28">
          <mxGeometry relative="1" as="geometry" />
        </mxCell>
        <mxCell id="JX8_ew-5PKiOk_pRESaE-31" value="false" style="edgeLabel;html=1;align=center;verticalAlign=middle;resizable=0;points=[];" vertex="1" connectable="0" parent="JX8_ew-5PKiOk_pRESaE-29">
          <mxGeometry x="0.2152" y="2" relative="1" as="geometry">
            <mxPoint as="offset" />
          </mxGeometry>
        </mxCell>
        <mxCell id="JX8_ew-5PKiOk_pRESaE-21" value="a&amp;lt;&amp;gt;b" style="rhombus;whiteSpace=wrap;html=1;direction=east;" vertex="1" parent="1">
          <mxGeometry x="520" y="380" width="80" height="80" as="geometry" />
        </mxCell>
        <mxCell id="JX8_ew-5PKiOk_pRESaE-33" style="edgeStyle=orthogonalEdgeStyle;rounded=0;orthogonalLoop=1;jettySize=auto;html=1;exitX=0.5;exitY=0;exitDx=0;exitDy=0;entryX=0.5;entryY=1;entryDx=0;entryDy=0;" edge="1" parent="1" source="JX8_ew-5PKiOk_pRESaE-28" target="JX8_ew-5PKiOk_pRESaE-32">
          <mxGeometry relative="1" as="geometry" />
        </mxCell>
        <mxCell id="JX8_ew-5PKiOk_pRESaE-28" value="BCNN" style="shape=parallelogram;perimeter=parallelogramPerimeter;whiteSpace=wrap;html=1;fixedSize=1;" vertex="1" parent="1">
          <mxGeometry x="610" y="180" width="120" height="60" as="geometry" />
        </mxCell>
        <mxCell id="JX8_ew-5PKiOk_pRESaE-32" value="end&amp;nbsp;" style="ellipse;whiteSpace=wrap;html=1;" vertex="1" parent="1">
          <mxGeometry x="610" y="40" width="120" height="80" as="geometry" />
        </mxCell>
      </root>
    </mxGraphModel>
  </diagram>
  <diagram id="7Hq7cn17ZmUIXOf5wj4c" name="bt4 ss1">
    <mxGraphModel dx="794" dy="1625" grid="1" gridSize="10" guides="1" tooltips="1" connect="1" arrows="1" fold="1" page="1" pageScale="1" pageWidth="827" pageHeight="1169" math="0" shadow="0">
      <root>
        <mxCell id="0" />
        <mxCell id="1" parent="0" />
        <mxCell id="sC_qigO_GdNuULmfiEBs-5" style="edgeStyle=orthogonalEdgeStyle;rounded=0;orthogonalLoop=1;jettySize=auto;html=1;exitX=0.5;exitY=1;exitDx=0;exitDy=0;" edge="1" parent="1" source="sC_qigO_GdNuULmfiEBs-1" target="sC_qigO_GdNuULmfiEBs-4">
          <mxGeometry relative="1" as="geometry" />
        </mxCell>
        <mxCell id="sC_qigO_GdNuULmfiEBs-1" value="start&amp;nbsp;" style="ellipse;whiteSpace=wrap;html=1;" vertex="1" parent="1">
          <mxGeometry x="50" y="-850" width="120" height="80" as="geometry" />
        </mxCell>
        <mxCell id="sC_qigO_GdNuULmfiEBs-8" style="edgeStyle=orthogonalEdgeStyle;rounded=0;orthogonalLoop=1;jettySize=auto;html=1;exitX=0.5;exitY=1;exitDx=0;exitDy=0;" edge="1" parent="1" source="sC_qigO_GdNuULmfiEBs-4" target="sC_qigO_GdNuULmfiEBs-7">
          <mxGeometry relative="1" as="geometry" />
        </mxCell>
        <mxCell id="sC_qigO_GdNuULmfiEBs-4" value="a,b,c,delta" style="shape=parallelogram;perimeter=parallelogramPerimeter;whiteSpace=wrap;html=1;fixedSize=1;" vertex="1" parent="1">
          <mxGeometry x="50" y="-710" width="120" height="60" as="geometry" />
        </mxCell>
        <mxCell id="sC_qigO_GdNuULmfiEBs-10" style="edgeStyle=orthogonalEdgeStyle;rounded=0;orthogonalLoop=1;jettySize=auto;html=1;exitX=1;exitY=0.5;exitDx=0;exitDy=0;entryX=0;entryY=0.5;entryDx=0;entryDy=0;" edge="1" parent="1" source="sC_qigO_GdNuULmfiEBs-7" target="sC_qigO_GdNuULmfiEBs-9">
          <mxGeometry relative="1" as="geometry" />
        </mxCell>
        <mxCell id="sC_qigO_GdNuULmfiEBs-11" value="true" style="edgeLabel;html=1;align=center;verticalAlign=middle;resizable=0;points=[];" vertex="1" connectable="0" parent="sC_qigO_GdNuULmfiEBs-10">
          <mxGeometry x="-0.1238" y="1" relative="1" as="geometry">
            <mxPoint as="offset" />
          </mxGeometry>
        </mxCell>
        <mxCell id="sC_qigO_GdNuULmfiEBs-14" style="edgeStyle=orthogonalEdgeStyle;rounded=0;orthogonalLoop=1;jettySize=auto;html=1;exitX=0.5;exitY=1;exitDx=0;exitDy=0;entryX=0.5;entryY=0;entryDx=0;entryDy=0;" edge="1" parent="1" source="sC_qigO_GdNuULmfiEBs-7" target="sC_qigO_GdNuULmfiEBs-13">
          <mxGeometry relative="1" as="geometry" />
        </mxCell>
        <mxCell id="sC_qigO_GdNuULmfiEBs-15" value="false" style="edgeLabel;html=1;align=center;verticalAlign=middle;resizable=0;points=[];" vertex="1" connectable="0" parent="sC_qigO_GdNuULmfiEBs-14">
          <mxGeometry x="-0.2889" y="1" relative="1" as="geometry">
            <mxPoint as="offset" />
          </mxGeometry>
        </mxCell>
        <mxCell id="sC_qigO_GdNuULmfiEBs-7" value="a=0" style="rhombus;whiteSpace=wrap;html=1;" vertex="1" parent="1">
          <mxGeometry x="70" y="-610" width="80" height="80" as="geometry" />
        </mxCell>
        <mxCell id="sC_qigO_GdNuULmfiEBs-44" style="edgeStyle=orthogonalEdgeStyle;rounded=0;orthogonalLoop=1;jettySize=auto;html=1;exitX=1;exitY=0.5;exitDx=0;exitDy=0;entryX=1;entryY=0.5;entryDx=0;entryDy=0;" edge="1" parent="1" target="sC_qigO_GdNuULmfiEBs-42">
          <mxGeometry relative="1" as="geometry">
            <mxPoint x="770" y="-150" as="targetPoint" />
            <mxPoint x="339" y="-570" as="sourcePoint" />
            <Array as="points">
              <mxPoint x="339" y="-569" />
              <mxPoint x="800" y="-569" />
              <mxPoint x="800" y="-200" />
            </Array>
          </mxGeometry>
        </mxCell>
        <mxCell id="sC_qigO_GdNuULmfiEBs-9" value="Phương trình bậc nhất bx+c=0" style="rounded=0;whiteSpace=wrap;html=1;" vertex="1" parent="1">
          <mxGeometry x="220" y="-600" width="120" height="60" as="geometry" />
        </mxCell>
        <mxCell id="sC_qigO_GdNuULmfiEBs-17" style="edgeStyle=orthogonalEdgeStyle;rounded=0;orthogonalLoop=1;jettySize=auto;html=1;exitX=1;exitY=0.5;exitDx=0;exitDy=0;entryX=0;entryY=0.5;entryDx=0;entryDy=0;" edge="1" parent="1" source="sC_qigO_GdNuULmfiEBs-13" target="sC_qigO_GdNuULmfiEBs-16">
          <mxGeometry relative="1" as="geometry" />
        </mxCell>
        <mxCell id="sC_qigO_GdNuULmfiEBs-18" value="true" style="edgeLabel;html=1;align=center;verticalAlign=middle;resizable=0;points=[];" vertex="1" connectable="0" parent="sC_qigO_GdNuULmfiEBs-17">
          <mxGeometry x="-0.0889" relative="1" as="geometry">
            <mxPoint as="offset" />
          </mxGeometry>
        </mxCell>
        <mxCell id="sC_qigO_GdNuULmfiEBs-43" style="edgeStyle=orthogonalEdgeStyle;rounded=0;orthogonalLoop=1;jettySize=auto;html=1;exitX=0.5;exitY=1;exitDx=0;exitDy=0;" edge="1" parent="1" source="sC_qigO_GdNuULmfiEBs-13" target="sC_qigO_GdNuULmfiEBs-42">
          <mxGeometry relative="1" as="geometry" />
        </mxCell>
        <mxCell id="sC_qigO_GdNuULmfiEBs-13" value="a!=0" style="rhombus;whiteSpace=wrap;html=1;" vertex="1" parent="1">
          <mxGeometry x="70" y="-500" width="80" height="80" as="geometry" />
        </mxCell>
        <mxCell id="sC_qigO_GdNuULmfiEBs-20" style="edgeStyle=orthogonalEdgeStyle;rounded=0;orthogonalLoop=1;jettySize=auto;html=1;exitX=1;exitY=0.5;exitDx=0;exitDy=0;" edge="1" parent="1" source="sC_qigO_GdNuULmfiEBs-16" target="sC_qigO_GdNuULmfiEBs-19">
          <mxGeometry relative="1" as="geometry" />
        </mxCell>
        <mxCell id="sC_qigO_GdNuULmfiEBs-16" value="delta=b*b-4*a*c" style="rounded=0;whiteSpace=wrap;html=1;" vertex="1" parent="1">
          <mxGeometry x="210" y="-490" width="120" height="60" as="geometry" />
        </mxCell>
        <mxCell id="sC_qigO_GdNuULmfiEBs-23" style="edgeStyle=orthogonalEdgeStyle;rounded=0;orthogonalLoop=1;jettySize=auto;html=1;exitX=0.5;exitY=1;exitDx=0;exitDy=0;entryX=0.5;entryY=0;entryDx=0;entryDy=0;" edge="1" parent="1" source="sC_qigO_GdNuULmfiEBs-19" target="sC_qigO_GdNuULmfiEBs-21">
          <mxGeometry relative="1" as="geometry" />
        </mxCell>
        <mxCell id="sC_qigO_GdNuULmfiEBs-24" value="true" style="edgeLabel;html=1;align=center;verticalAlign=middle;resizable=0;points=[];" vertex="1" connectable="0" parent="sC_qigO_GdNuULmfiEBs-23">
          <mxGeometry x="-0.2095" y="-1" relative="1" as="geometry">
            <mxPoint as="offset" />
          </mxGeometry>
        </mxCell>
        <mxCell id="sC_qigO_GdNuULmfiEBs-28" style="edgeStyle=orthogonalEdgeStyle;rounded=0;orthogonalLoop=1;jettySize=auto;html=1;exitX=1;exitY=0.5;exitDx=0;exitDy=0;entryX=0;entryY=0.5;entryDx=0;entryDy=0;" edge="1" parent="1" source="sC_qigO_GdNuULmfiEBs-19" target="sC_qigO_GdNuULmfiEBs-25">
          <mxGeometry relative="1" as="geometry" />
        </mxCell>
        <mxCell id="sC_qigO_GdNuULmfiEBs-31" value="false" style="edgeLabel;html=1;align=center;verticalAlign=middle;resizable=0;points=[];" vertex="1" connectable="0" parent="sC_qigO_GdNuULmfiEBs-28">
          <mxGeometry x="-0.0667" y="-1" relative="1" as="geometry">
            <mxPoint as="offset" />
          </mxGeometry>
        </mxCell>
        <mxCell id="sC_qigO_GdNuULmfiEBs-19" value="delta&amp;gt;0" style="rhombus;whiteSpace=wrap;html=1;" vertex="1" parent="1">
          <mxGeometry x="360" y="-500" width="80" height="80" as="geometry" />
        </mxCell>
        <mxCell id="sC_qigO_GdNuULmfiEBs-45" style="edgeStyle=orthogonalEdgeStyle;rounded=0;orthogonalLoop=1;jettySize=auto;html=1;exitX=0.5;exitY=1;exitDx=0;exitDy=0;" edge="1" parent="1" source="sC_qigO_GdNuULmfiEBs-21">
          <mxGeometry relative="1" as="geometry">
            <mxPoint x="400" y="-200" as="targetPoint" />
          </mxGeometry>
        </mxCell>
        <mxCell id="sC_qigO_GdNuULmfiEBs-21" value="phương trình có 2 nghiệm phân biệt&amp;nbsp;&lt;br&gt;x1=(-b+sqrt(delta))/2a&lt;br&gt;x2=(-b-sqrt(delta))/2a" style="rounded=0;whiteSpace=wrap;html=1;" vertex="1" parent="1">
          <mxGeometry x="340" y="-350" width="120" height="60" as="geometry" />
        </mxCell>
        <mxCell id="sC_qigO_GdNuULmfiEBs-35" style="edgeStyle=orthogonalEdgeStyle;rounded=0;orthogonalLoop=1;jettySize=auto;html=1;exitX=0.5;exitY=1;exitDx=0;exitDy=0;entryX=0.5;entryY=0;entryDx=0;entryDy=0;" edge="1" parent="1" source="sC_qigO_GdNuULmfiEBs-25" target="sC_qigO_GdNuULmfiEBs-32">
          <mxGeometry relative="1" as="geometry" />
        </mxCell>
        <mxCell id="sC_qigO_GdNuULmfiEBs-36" value="true" style="edgeLabel;html=1;align=center;verticalAlign=middle;resizable=0;points=[];" vertex="1" connectable="0" parent="sC_qigO_GdNuULmfiEBs-35">
          <mxGeometry x="-0.1524" y="1" relative="1" as="geometry">
            <mxPoint as="offset" />
          </mxGeometry>
        </mxCell>
        <mxCell id="sC_qigO_GdNuULmfiEBs-38" style="edgeStyle=orthogonalEdgeStyle;rounded=0;orthogonalLoop=1;jettySize=auto;html=1;exitX=1;exitY=0.5;exitDx=0;exitDy=0;" edge="1" parent="1" source="sC_qigO_GdNuULmfiEBs-25" target="sC_qigO_GdNuULmfiEBs-37">
          <mxGeometry relative="1" as="geometry" />
        </mxCell>
        <mxCell id="sC_qigO_GdNuULmfiEBs-39" value="false" style="edgeLabel;html=1;align=center;verticalAlign=middle;resizable=0;points=[];" vertex="1" connectable="0" parent="sC_qigO_GdNuULmfiEBs-38">
          <mxGeometry x="-0.0556" y="1" relative="1" as="geometry">
            <mxPoint as="offset" />
          </mxGeometry>
        </mxCell>
        <mxCell id="sC_qigO_GdNuULmfiEBs-25" value="delta=0" style="rhombus;whiteSpace=wrap;html=1;" vertex="1" parent="1">
          <mxGeometry x="520" y="-500" width="80" height="80" as="geometry" />
        </mxCell>
        <mxCell id="sC_qigO_GdNuULmfiEBs-46" style="edgeStyle=orthogonalEdgeStyle;rounded=0;orthogonalLoop=1;jettySize=auto;html=1;exitX=0.5;exitY=1;exitDx=0;exitDy=0;" edge="1" parent="1" source="sC_qigO_GdNuULmfiEBs-32">
          <mxGeometry relative="1" as="geometry">
            <mxPoint x="560" y="-200" as="targetPoint" />
          </mxGeometry>
        </mxCell>
        <mxCell id="sC_qigO_GdNuULmfiEBs-32" value="Phương trình có nghiệm kép&amp;nbsp;&lt;br&gt;x=-b/2a" style="rounded=0;whiteSpace=wrap;html=1;" vertex="1" parent="1">
          <mxGeometry x="500" y="-350" width="120" height="60" as="geometry" />
        </mxCell>
        <mxCell id="sC_qigO_GdNuULmfiEBs-41" style="edgeStyle=orthogonalEdgeStyle;rounded=0;orthogonalLoop=1;jettySize=auto;html=1;exitX=0.5;exitY=1;exitDx=0;exitDy=0;" edge="1" parent="1" source="sC_qigO_GdNuULmfiEBs-37" target="sC_qigO_GdNuULmfiEBs-40">
          <mxGeometry relative="1" as="geometry" />
        </mxCell>
        <mxCell id="sC_qigO_GdNuULmfiEBs-37" value="delta&amp;lt;0" style="rhombus;whiteSpace=wrap;html=1;" vertex="1" parent="1">
          <mxGeometry x="660" y="-500" width="80" height="80" as="geometry" />
        </mxCell>
        <mxCell id="sC_qigO_GdNuULmfiEBs-47" style="edgeStyle=orthogonalEdgeStyle;rounded=0;orthogonalLoop=1;jettySize=auto;html=1;exitX=0.5;exitY=1;exitDx=0;exitDy=0;" edge="1" parent="1" source="sC_qigO_GdNuULmfiEBs-40">
          <mxGeometry relative="1" as="geometry">
            <mxPoint x="700" y="-200" as="targetPoint" />
          </mxGeometry>
        </mxCell>
        <mxCell id="sC_qigO_GdNuULmfiEBs-40" value="Phương trình vô&amp;nbsp;" style="rounded=0;whiteSpace=wrap;html=1;" vertex="1" parent="1">
          <mxGeometry x="640" y="-350" width="120" height="60" as="geometry" />
        </mxCell>
        <mxCell id="sC_qigO_GdNuULmfiEBs-42" value="end" style="ellipse;whiteSpace=wrap;html=1;" vertex="1" parent="1">
          <mxGeometry x="50" y="-240" width="120" height="80" as="geometry" />
        </mxCell>
      </root>
    </mxGraphModel>
  </diagram>
  <diagram id="t2t2jogvG1zsmxPVdENz" name="bt5 ss1">
    <mxGraphModel dx="794" dy="456" grid="1" gridSize="10" guides="1" tooltips="1" connect="1" arrows="1" fold="1" page="1" pageScale="1" pageWidth="827" pageHeight="1169" math="0" shadow="0">
      <root>
        <mxCell id="0" />
        <mxCell id="1" parent="0" />
        <mxCell id="uMNXvNqyagPs9fyf8psx-3" style="edgeStyle=orthogonalEdgeStyle;rounded=0;orthogonalLoop=1;jettySize=auto;html=1;exitX=0.5;exitY=1;exitDx=0;exitDy=0;" edge="1" parent="1" source="uMNXvNqyagPs9fyf8psx-1" target="uMNXvNqyagPs9fyf8psx-2">
          <mxGeometry relative="1" as="geometry" />
        </mxCell>
        <mxCell id="uMNXvNqyagPs9fyf8psx-1" value="start" style="ellipse;whiteSpace=wrap;html=1;" vertex="1" parent="1">
          <mxGeometry x="180" y="80" width="120" height="80" as="geometry" />
        </mxCell>
        <mxCell id="uMNXvNqyagPs9fyf8psx-5" style="edgeStyle=orthogonalEdgeStyle;rounded=0;orthogonalLoop=1;jettySize=auto;html=1;exitX=0.5;exitY=1;exitDx=0;exitDy=0;entryX=0.5;entryY=0;entryDx=0;entryDy=0;" edge="1" parent="1" source="uMNXvNqyagPs9fyf8psx-2" target="uMNXvNqyagPs9fyf8psx-4">
          <mxGeometry relative="1" as="geometry" />
        </mxCell>
        <mxCell id="uMNXvNqyagPs9fyf8psx-2" value="a,b,+,-,*,/" style="shape=parallelogram;perimeter=parallelogramPerimeter;whiteSpace=wrap;html=1;fixedSize=1;" vertex="1" parent="1">
          <mxGeometry x="180" y="210" width="120" height="60" as="geometry" />
        </mxCell>
        <mxCell id="uMNXvNqyagPs9fyf8psx-7" style="edgeStyle=orthogonalEdgeStyle;rounded=0;orthogonalLoop=1;jettySize=auto;html=1;exitX=1;exitY=0.5;exitDx=0;exitDy=0;" edge="1" parent="1" source="uMNXvNqyagPs9fyf8psx-4" target="uMNXvNqyagPs9fyf8psx-6">
          <mxGeometry relative="1" as="geometry" />
        </mxCell>
        <mxCell id="uMNXvNqyagPs9fyf8psx-8" value="true" style="edgeLabel;html=1;align=center;verticalAlign=middle;resizable=0;points=[];" vertex="1" connectable="0" parent="uMNXvNqyagPs9fyf8psx-7">
          <mxGeometry x="-0.0889" y="-1" relative="1" as="geometry">
            <mxPoint as="offset" />
          </mxGeometry>
        </mxCell>
        <mxCell id="uMNXvNqyagPs9fyf8psx-10" style="edgeStyle=orthogonalEdgeStyle;rounded=0;orthogonalLoop=1;jettySize=auto;html=1;exitX=0.5;exitY=1;exitDx=0;exitDy=0;" edge="1" parent="1" source="uMNXvNqyagPs9fyf8psx-4" target="uMNXvNqyagPs9fyf8psx-9">
          <mxGeometry relative="1" as="geometry" />
        </mxCell>
        <mxCell id="uMNXvNqyagPs9fyf8psx-11" value="false" style="edgeLabel;html=1;align=center;verticalAlign=middle;resizable=0;points=[];" vertex="1" connectable="0" parent="uMNXvNqyagPs9fyf8psx-10">
          <mxGeometry x="-0.0857" y="3" relative="1" as="geometry">
            <mxPoint as="offset" />
          </mxGeometry>
        </mxCell>
        <mxCell id="uMNXvNqyagPs9fyf8psx-4" value="+" style="rhombus;whiteSpace=wrap;html=1;" vertex="1" parent="1">
          <mxGeometry x="200" y="340" width="80" height="80" as="geometry" />
        </mxCell>
        <mxCell id="uMNXvNqyagPs9fyf8psx-17" style="edgeStyle=orthogonalEdgeStyle;rounded=0;orthogonalLoop=1;jettySize=auto;html=1;exitX=0.5;exitY=1;exitDx=0;exitDy=0;" edge="1" parent="1" source="uMNXvNqyagPs9fyf8psx-6" target="uMNXvNqyagPs9fyf8psx-12">
          <mxGeometry relative="1" as="geometry" />
        </mxCell>
        <mxCell id="uMNXvNqyagPs9fyf8psx-6" value="c=a+b" style="rounded=0;whiteSpace=wrap;html=1;" vertex="1" parent="1">
          <mxGeometry x="400" y="350" width="120" height="60" as="geometry" />
        </mxCell>
        <mxCell id="uMNXvNqyagPs9fyf8psx-13" style="edgeStyle=orthogonalEdgeStyle;rounded=0;orthogonalLoop=1;jettySize=auto;html=1;exitX=1;exitY=0.5;exitDx=0;exitDy=0;" edge="1" parent="1" source="uMNXvNqyagPs9fyf8psx-9" target="uMNXvNqyagPs9fyf8psx-12">
          <mxGeometry relative="1" as="geometry" />
        </mxCell>
        <mxCell id="uMNXvNqyagPs9fyf8psx-16" value="true" style="edgeLabel;html=1;align=center;verticalAlign=middle;resizable=0;points=[];" vertex="1" connectable="0" parent="uMNXvNqyagPs9fyf8psx-13">
          <mxGeometry x="-0.0889" y="1" relative="1" as="geometry">
            <mxPoint as="offset" />
          </mxGeometry>
        </mxCell>
        <mxCell id="uMNXvNqyagPs9fyf8psx-19" style="edgeStyle=orthogonalEdgeStyle;rounded=0;orthogonalLoop=1;jettySize=auto;html=1;exitX=0.5;exitY=1;exitDx=0;exitDy=0;" edge="1" parent="1" source="uMNXvNqyagPs9fyf8psx-9" target="uMNXvNqyagPs9fyf8psx-18">
          <mxGeometry relative="1" as="geometry" />
        </mxCell>
        <mxCell id="uMNXvNqyagPs9fyf8psx-23" value="false" style="edgeLabel;html=1;align=center;verticalAlign=middle;resizable=0;points=[];" vertex="1" connectable="0" parent="uMNXvNqyagPs9fyf8psx-19">
          <mxGeometry x="-0.1077" y="1" relative="1" as="geometry">
            <mxPoint as="offset" />
          </mxGeometry>
        </mxCell>
        <mxCell id="uMNXvNqyagPs9fyf8psx-9" value="-" style="rhombus;whiteSpace=wrap;html=1;" vertex="1" parent="1">
          <mxGeometry x="200" y="505" width="80" height="80" as="geometry" />
        </mxCell>
        <mxCell id="uMNXvNqyagPs9fyf8psx-22" style="edgeStyle=orthogonalEdgeStyle;rounded=0;orthogonalLoop=1;jettySize=auto;html=1;exitX=0.5;exitY=1;exitDx=0;exitDy=0;entryX=0.5;entryY=0;entryDx=0;entryDy=0;" edge="1" parent="1" source="uMNXvNqyagPs9fyf8psx-12" target="uMNXvNqyagPs9fyf8psx-20">
          <mxGeometry relative="1" as="geometry" />
        </mxCell>
        <mxCell id="uMNXvNqyagPs9fyf8psx-12" value="c=a-b" style="rounded=0;whiteSpace=wrap;html=1;" vertex="1" parent="1">
          <mxGeometry x="400" y="515" width="120" height="60" as="geometry" />
        </mxCell>
        <mxCell id="uMNXvNqyagPs9fyf8psx-21" style="edgeStyle=orthogonalEdgeStyle;rounded=0;orthogonalLoop=1;jettySize=auto;html=1;exitX=1;exitY=0.5;exitDx=0;exitDy=0;entryX=0;entryY=0.5;entryDx=0;entryDy=0;" edge="1" parent="1" source="uMNXvNqyagPs9fyf8psx-18" target="uMNXvNqyagPs9fyf8psx-20">
          <mxGeometry relative="1" as="geometry" />
        </mxCell>
        <mxCell id="uMNXvNqyagPs9fyf8psx-24" value="true" style="edgeLabel;html=1;align=center;verticalAlign=middle;resizable=0;points=[];" vertex="1" connectable="0" parent="uMNXvNqyagPs9fyf8psx-21">
          <mxGeometry x="-0.0222" relative="1" as="geometry">
            <mxPoint as="offset" />
          </mxGeometry>
        </mxCell>
        <mxCell id="uMNXvNqyagPs9fyf8psx-26" style="edgeStyle=orthogonalEdgeStyle;rounded=0;orthogonalLoop=1;jettySize=auto;html=1;exitX=0.5;exitY=1;exitDx=0;exitDy=0;" edge="1" parent="1" source="uMNXvNqyagPs9fyf8psx-18" target="uMNXvNqyagPs9fyf8psx-25">
          <mxGeometry relative="1" as="geometry" />
        </mxCell>
        <mxCell id="uMNXvNqyagPs9fyf8psx-29" value="false" style="edgeLabel;html=1;align=center;verticalAlign=middle;resizable=0;points=[];" vertex="1" connectable="0" parent="uMNXvNqyagPs9fyf8psx-26">
          <mxGeometry x="0.0286" y="-1" relative="1" as="geometry">
            <mxPoint as="offset" />
          </mxGeometry>
        </mxCell>
        <mxCell id="uMNXvNqyagPs9fyf8psx-18" value="*" style="rhombus;whiteSpace=wrap;html=1;" vertex="1" parent="1">
          <mxGeometry x="200" y="650" width="80" height="80" as="geometry" />
        </mxCell>
        <mxCell id="uMNXvNqyagPs9fyf8psx-32" style="edgeStyle=orthogonalEdgeStyle;rounded=0;orthogonalLoop=1;jettySize=auto;html=1;exitX=0.5;exitY=1;exitDx=0;exitDy=0;" edge="1" parent="1" source="uMNXvNqyagPs9fyf8psx-20" target="uMNXvNqyagPs9fyf8psx-27">
          <mxGeometry relative="1" as="geometry" />
        </mxCell>
        <mxCell id="uMNXvNqyagPs9fyf8psx-20" value="c=a*b" style="rounded=0;whiteSpace=wrap;html=1;" vertex="1" parent="1">
          <mxGeometry x="400" y="660" width="120" height="60" as="geometry" />
        </mxCell>
        <mxCell id="uMNXvNqyagPs9fyf8psx-31" style="edgeStyle=orthogonalEdgeStyle;rounded=0;orthogonalLoop=1;jettySize=auto;html=1;exitX=1;exitY=0.5;exitDx=0;exitDy=0;" edge="1" parent="1" source="uMNXvNqyagPs9fyf8psx-25" target="uMNXvNqyagPs9fyf8psx-27">
          <mxGeometry relative="1" as="geometry" />
        </mxCell>
        <mxCell id="uMNXvNqyagPs9fyf8psx-34" value="true" style="edgeLabel;html=1;align=center;verticalAlign=middle;resizable=0;points=[];" vertex="1" connectable="0" parent="uMNXvNqyagPs9fyf8psx-31">
          <mxGeometry x="-0.1056" relative="1" as="geometry">
            <mxPoint as="offset" />
          </mxGeometry>
        </mxCell>
        <mxCell id="uMNXvNqyagPs9fyf8psx-36" style="edgeStyle=orthogonalEdgeStyle;rounded=0;orthogonalLoop=1;jettySize=auto;html=1;exitX=0.5;exitY=1;exitDx=0;exitDy=0;entryX=0;entryY=0.5;entryDx=0;entryDy=0;" edge="1" parent="1" source="uMNXvNqyagPs9fyf8psx-25" target="uMNXvNqyagPs9fyf8psx-35">
          <mxGeometry relative="1" as="geometry" />
        </mxCell>
        <mxCell id="uMNXvNqyagPs9fyf8psx-25" value="/" style="rhombus;whiteSpace=wrap;html=1;" vertex="1" parent="1">
          <mxGeometry x="200" y="830" width="80" height="80" as="geometry" />
        </mxCell>
        <mxCell id="uMNXvNqyagPs9fyf8psx-27" value="c=a/b" style="rounded=0;whiteSpace=wrap;html=1;" vertex="1" parent="1">
          <mxGeometry x="400" y="840" width="120" height="60" as="geometry" />
        </mxCell>
        <mxCell id="uMNXvNqyagPs9fyf8psx-35" value="end" style="ellipse;whiteSpace=wrap;html=1;" vertex="1" parent="1">
          <mxGeometry x="294" y="980" width="120" height="80" as="geometry" />
        </mxCell>
        <mxCell id="uMNXvNqyagPs9fyf8psx-37" style="edgeStyle=orthogonalEdgeStyle;rounded=0;orthogonalLoop=1;jettySize=auto;html=1;exitX=0.5;exitY=1;exitDx=0;exitDy=0;entryX=0.994;entryY=0.592;entryDx=0;entryDy=0;entryPerimeter=0;" edge="1" parent="1" source="uMNXvNqyagPs9fyf8psx-27" target="uMNXvNqyagPs9fyf8psx-35">
          <mxGeometry relative="1" as="geometry" />
        </mxCell>
      </root>
    </mxGraphModel>
  </diagram>
  <diagram id="lC5UE7hjmis09HuwvkRb" name="bt6 ss1">
    <mxGraphModel dx="794" dy="456" grid="1" gridSize="10" guides="1" tooltips="1" connect="1" arrows="1" fold="1" page="1" pageScale="1" pageWidth="827" pageHeight="1169" math="0" shadow="0">
      <root>
        <mxCell id="0" />
        <mxCell id="1" parent="0" />
        <mxCell id="seYJKj-f_2mpwJHlEGvZ-3" style="edgeStyle=orthogonalEdgeStyle;rounded=0;orthogonalLoop=1;jettySize=auto;html=1;exitX=0.5;exitY=1;exitDx=0;exitDy=0;entryX=0.5;entryY=0;entryDx=0;entryDy=0;" edge="1" parent="1" source="seYJKj-f_2mpwJHlEGvZ-1" target="seYJKj-f_2mpwJHlEGvZ-2">
          <mxGeometry relative="1" as="geometry" />
        </mxCell>
        <mxCell id="seYJKj-f_2mpwJHlEGvZ-1" value="start" style="ellipse;whiteSpace=wrap;html=1;" vertex="1" parent="1">
          <mxGeometry x="240" y="90" width="120" height="80" as="geometry" />
        </mxCell>
        <mxCell id="seYJKj-f_2mpwJHlEGvZ-16" style="edgeStyle=orthogonalEdgeStyle;rounded=0;orthogonalLoop=1;jettySize=auto;html=1;exitX=0.5;exitY=1;exitDx=0;exitDy=0;" edge="1" parent="1" source="seYJKj-f_2mpwJHlEGvZ-2" target="seYJKj-f_2mpwJHlEGvZ-15">
          <mxGeometry relative="1" as="geometry" />
        </mxCell>
        <mxCell id="seYJKj-f_2mpwJHlEGvZ-2" value="a,b,c,n,d,f" style="shape=parallelogram;perimeter=parallelogramPerimeter;whiteSpace=wrap;html=1;fixedSize=1;" vertex="1" parent="1">
          <mxGeometry x="240" y="220" width="120" height="60" as="geometry" />
        </mxCell>
        <mxCell id="seYJKj-f_2mpwJHlEGvZ-18" style="edgeStyle=orthogonalEdgeStyle;rounded=0;orthogonalLoop=1;jettySize=auto;html=1;exitX=0.5;exitY=1;exitDx=0;exitDy=0;" edge="1" parent="1" source="seYJKj-f_2mpwJHlEGvZ-15" target="seYJKj-f_2mpwJHlEGvZ-17">
          <mxGeometry relative="1" as="geometry" />
        </mxCell>
        <mxCell id="seYJKj-f_2mpwJHlEGvZ-15" value="a=n%10" style="rounded=0;whiteSpace=wrap;html=1;" vertex="1" parent="1">
          <mxGeometry x="240" y="340" width="120" height="60" as="geometry" />
        </mxCell>
        <mxCell id="seYJKj-f_2mpwJHlEGvZ-20" style="edgeStyle=orthogonalEdgeStyle;rounded=0;orthogonalLoop=1;jettySize=auto;html=1;exitX=0.5;exitY=1;exitDx=0;exitDy=0;" edge="1" parent="1" source="seYJKj-f_2mpwJHlEGvZ-17" target="seYJKj-f_2mpwJHlEGvZ-19">
          <mxGeometry relative="1" as="geometry" />
        </mxCell>
        <mxCell id="seYJKj-f_2mpwJHlEGvZ-17" value="b=n/10" style="rounded=0;whiteSpace=wrap;html=1;" vertex="1" parent="1">
          <mxGeometry x="240" y="470" width="120" height="60" as="geometry" />
        </mxCell>
        <mxCell id="seYJKj-f_2mpwJHlEGvZ-22" style="edgeStyle=orthogonalEdgeStyle;rounded=0;orthogonalLoop=1;jettySize=auto;html=1;exitX=0.5;exitY=1;exitDx=0;exitDy=0;" edge="1" parent="1" source="seYJKj-f_2mpwJHlEGvZ-19" target="seYJKj-f_2mpwJHlEGvZ-21">
          <mxGeometry relative="1" as="geometry" />
        </mxCell>
        <mxCell id="seYJKj-f_2mpwJHlEGvZ-19" value="c=b%10" style="rounded=0;whiteSpace=wrap;html=1;" vertex="1" parent="1">
          <mxGeometry x="240" y="590" width="120" height="60" as="geometry" />
        </mxCell>
        <mxCell id="seYJKj-f_2mpwJHlEGvZ-24" style="edgeStyle=orthogonalEdgeStyle;rounded=0;orthogonalLoop=1;jettySize=auto;html=1;exitX=0.5;exitY=1;exitDx=0;exitDy=0;" edge="1" parent="1" source="seYJKj-f_2mpwJHlEGvZ-21" target="seYJKj-f_2mpwJHlEGvZ-23">
          <mxGeometry relative="1" as="geometry" />
        </mxCell>
        <mxCell id="seYJKj-f_2mpwJHlEGvZ-21" value="d=b/10" style="rounded=0;whiteSpace=wrap;html=1;" vertex="1" parent="1">
          <mxGeometry x="240" y="720" width="120" height="60" as="geometry" />
        </mxCell>
        <mxCell id="seYJKj-f_2mpwJHlEGvZ-28" style="edgeStyle=orthogonalEdgeStyle;rounded=0;orthogonalLoop=1;jettySize=auto;html=1;exitX=0.5;exitY=1;exitDx=0;exitDy=0;" edge="1" parent="1" source="seYJKj-f_2mpwJHlEGvZ-23" target="seYJKj-f_2mpwJHlEGvZ-27">
          <mxGeometry relative="1" as="geometry" />
        </mxCell>
        <mxCell id="seYJKj-f_2mpwJHlEGvZ-23" value="f=d%10" style="rounded=0;whiteSpace=wrap;html=1;" vertex="1" parent="1">
          <mxGeometry x="240" y="820" width="120" height="60" as="geometry" />
        </mxCell>
        <mxCell id="seYJKj-f_2mpwJHlEGvZ-30" style="edgeStyle=orthogonalEdgeStyle;rounded=0;orthogonalLoop=1;jettySize=auto;html=1;exitX=0.5;exitY=1;exitDx=0;exitDy=0;" edge="1" parent="1" source="seYJKj-f_2mpwJHlEGvZ-27" target="seYJKj-f_2mpwJHlEGvZ-29">
          <mxGeometry relative="1" as="geometry" />
        </mxCell>
        <mxCell id="seYJKj-f_2mpwJHlEGvZ-27" value="Số đảo ngược&amp;nbsp;" style="shape=parallelogram;perimeter=parallelogramPerimeter;whiteSpace=wrap;html=1;fixedSize=1;" vertex="1" parent="1">
          <mxGeometry x="240" y="960" width="120" height="60" as="geometry" />
        </mxCell>
        <mxCell id="seYJKj-f_2mpwJHlEGvZ-29" value="end" style="ellipse;whiteSpace=wrap;html=1;" vertex="1" parent="1">
          <mxGeometry x="240" y="1089" width="120" height="80" as="geometry" />
        </mxCell>
      </root>
    </mxGraphModel>
  </diagram>
</mxfile>
